<svg width="12" height="20" viewBox="0 0 18 24" fill="none" xmlns="http://www.w3.org/2000/svg">
<mask id="mask0_8_535" style="mask-type:luminance" maskUnits="userSpaceOnUse" x="0" y="0" width="18" height="24">
<path d="M9 24C9 24 18 16.8 18 9C18 4.0296 13.9704 0 9 0C4.0296 0 0 4.0296 0 9C0 16.8 9 24 9 24Z" fill="white"/>
<path d="M9.00039 12.5984C9.47315 12.5984 9.94128 12.5053 10.3781 12.3244C10.8148 12.1435 11.2117 11.8783 11.546 11.544C11.8803 11.2097 12.1454 10.8129 12.3264 10.3761C12.5073 9.93933 12.6004 9.4712 12.6004 8.99844C12.6004 8.52568 12.5073 8.05755 12.3264 7.62078C12.1454 7.184 11.8803 6.78714 11.546 6.45285C11.2117 6.11856 10.8148 5.85339 10.3781 5.67247C9.94128 5.49155 9.47315 5.39844 9.00039 5.39844C8.04561 5.39844 7.12994 5.77772 6.45481 6.45285C5.77967 7.12798 5.40039 8.04366 5.40039 8.99844C5.40039 9.95322 5.77967 10.8689 6.45481 11.544C7.12994 12.2192 8.04561 12.5984 9.00039 12.5984Z" fill="black"/>
</mask>
<g mask="url(#mask0_8_535)">
<path d="M-5.40039 -2.39844H23.3996V26.4016H-5.40039V-2.39844Z" fill="black" fill-opacity="0.25"/>
</g>
</svg>
