<svg width="35" height="39" viewBox="0 0 35 39" fill="none" xmlns="http://www.w3.org/2000/svg">
<path fill-rule="evenodd" clip-rule="evenodd" d="M23.3738 34.8947C23.3741 35.9304 23.001 36.928 22.3293 37.6874C21.6575 38.4469 20.7368 38.9121 19.7517 38.9897L19.458 39H15.5423C14.5544 39.0003 13.6029 38.6092 12.8785 37.9049C12.1541 37.2007 11.7104 36.2354 11.6363 35.2026L11.6265 34.8947H23.3738ZM17.5002 1.95835e-09C21.0537 -6.14661e-05 24.4683 1.44689 27.0237 4.03563C29.5792 6.62437 31.0756 10.1525 31.1975 13.8758L31.2053 14.3684V22.0945L34.7726 29.5743C34.9282 29.9007 35.0062 30.2617 34.9996 30.6266C34.9931 30.9914 34.9023 31.3492 34.7351 31.6692C34.5678 31.9892 34.3291 32.262 34.0393 32.4641C33.7495 32.6662 33.4173 32.7917 33.0712 32.8298L32.846 32.8421H2.1543C1.80612 32.8422 1.46311 32.7538 1.15465 32.5845C0.846196 32.4152 0.581497 32.17 0.383239 31.8699C0.184981 31.5698 0.0590741 31.2238 0.0163079 30.8615C-0.0264583 30.4993 0.0151915 30.1315 0.137688 29.7898L0.22775 29.5743L3.795 22.0945V14.3684C3.795 10.5577 5.23894 6.90301 7.80915 4.20841C10.3794 1.51381 13.8653 1.95835e-09 17.5002 1.95835e-09ZM17.5002 4.10526C14.9775 4.10542 12.5523 5.12653 10.7302 6.95567C8.90821 8.78481 7.83003 11.2808 7.72055 13.923L7.71076 14.3684V22.0945C7.71078 22.6036 7.62049 23.1082 7.44449 23.5827L7.29765 23.9316L5.00693 28.7368H29.9953L27.7046 23.9296C27.4873 23.4745 27.3525 22.981 27.3072 22.4743L27.2895 22.0945V14.3684C27.2895 11.6465 26.2582 9.03599 24.4223 7.11127C22.5864 5.18656 20.0965 4.10526 17.5002 4.10526Z" fill="white"/>
</svg>
