<svg width="20" height="20" viewBox="0 0 27 27" fill="none" xmlns="http://www.w3.org/2000/svg">
<mask id="mask0_8_590" style="mask-type:alpha" maskUnits="userSpaceOnUse" x="1" y="1" width="25" height="25">
<path d="M1 12.1111C1 6.87361 1 4.25417 2.62778 2.62778C4.25417 1 6.87361 1 12.1111 1H14.8889C20.1264 1 22.7458 1 24.3722 2.62778C26 4.25417 26 6.87361 26 12.1111V14.8889C26 20.1264 26 22.7458 24.3722 24.3722C22.7458 26 20.1264 26 14.8889 26H12.1111C6.87361 26 4.25417 26 2.62778 24.3722C1 22.7458 1 20.1264 1 14.8889V12.1111Z" fill="#273B4A"/>
</mask>
<g mask="url(#mask0_8_590)">
<path d="M4.34731 14.3207L4.13481 14.5332C2.7737 15.8943 2.09315 16.5748 1.68481 17.4123C1.54305 17.7026 1.42687 18.0047 1.33759 18.3151C1.08065 19.2095 1.13204 20.172 1.23342 22.0957L1.69454 30.8623H26.0001V24.2748C26.0001 22.2595 26.0001 21.2512 25.6681 20.3359C25.5779 20.0854 25.4698 19.8417 25.3445 19.6068C24.8862 18.747 24.1362 18.0734 22.6362 16.7248L22.339 16.4568C21.0945 15.3359 20.4723 14.7762 19.7612 14.6179C19.3148 14.5179 18.8505 14.5299 18.4098 14.6526C17.7084 14.8484 17.1154 15.4415 15.932 16.6248C15.0529 17.504 14.614 17.9429 14.1431 18.0026C13.8505 18.0393 13.5538 17.9819 13.2959 17.8387C12.8793 17.6082 12.6306 17.029 12.1348 15.8693C11.0779 13.404 10.5501 12.172 9.64176 11.7165C9.18434 11.4872 8.67246 11.3886 8.16259 11.4318C7.15009 11.5179 6.21676 12.4526 4.34731 14.3207Z" fill="black" fill-opacity="0.25" stroke="black" stroke-opacity="0.25"/>
</g>
<path d="M1 12.1111C1 6.87361 1 4.25417 2.62778 2.62778C4.25417 1 6.87361 1 12.1111 1H14.8889C20.1264 1 22.7458 1 24.3722 2.62778C26 4.25417 26 6.87361 26 12.1111V14.8889C26 20.1264 26 22.7458 24.3722 24.3722C22.7458 26 20.1264 26 14.8889 26H12.1111C6.87361 26 4.25417 26 2.62778 24.3722C1 22.7458 1 20.1264 1 14.8889V12.1111Z" stroke="black" stroke-opacity="0.25" stroke-width="1.2"/>
<path d="M19.7493 9.33073C20.8999 9.33073 21.8327 8.39799 21.8327 7.2474C21.8327 6.0968 20.8999 5.16406 19.7493 5.16406C18.5988 5.16406 17.666 6.0968 17.666 7.2474C17.666 8.39799 18.5988 9.33073 19.7493 9.33073Z" fill="black" fill-opacity="0.25"/>
</svg>
