<svg width="22" height="20" viewBox="0 0 24 22" fill="none" xmlns="http://www.w3.org/2000/svg">
<path d="M15.4261 4.9104L15.4244 3.51648C15.4235 2.58353 15.0619 1.68911 14.419 1.02974C13.7762 0.370372 12.9047 -4.66476e-07 11.996 0C10.1069 0 8.57615 1.57168 8.57615 3.5112V4.90688C5.81547 5.75161 3.44269 7.58742 1.8909 10.0792C0.339109 12.5711 -0.288218 15.5527 0.123421 18.48H23.8771C24.288 15.5537 23.6608 12.5733 22.1097 10.0823C20.5587 7.59131 18.1872 5.75574 15.4278 4.9104H15.4261ZM23.1417 20.24H0.8571C0.629784 20.24 0.411776 20.3327 0.251038 20.4977C0.0902996 20.6628 0 20.8866 0 21.12C0 21.3534 0.0902996 21.5772 0.251038 21.7423C0.411776 21.9073 0.629784 22 0.8571 22H23.1417C23.369 22 23.587 21.9073 23.7478 21.7423C23.9085 21.5772 23.9988 21.3534 23.9988 21.12C23.9988 20.8866 23.9085 20.6628 23.7478 20.4977C23.587 20.3327 23.369 20.24 23.1417 20.24ZM22.2846 16.72H1.7142C1.7142 15.3332 1.98024 13.9601 2.49712 12.6789C3.014 11.3977 3.7716 10.2335 4.72667 9.25295C5.68174 8.27237 6.81557 7.49452 8.06343 6.96383C9.31129 6.43314 10.6487 6.16 11.9994 6.16C13.3501 6.16 14.6875 6.43314 15.9354 6.96383C17.1832 7.49452 18.3171 8.27237 19.2721 9.25295C20.2272 10.2335 20.9848 11.3977 21.5017 12.6789C22.0186 13.9601 22.2846 15.3332 22.2846 16.72ZM10.2903 4.4V3.5112C10.2903 3.04675 10.47 2.60133 10.7899 2.27291C11.1098 1.9445 11.5436 1.76 11.996 1.76C12.4503 1.76 12.8861 1.94519 13.2075 2.27487C13.5289 2.60455 13.7097 3.05176 13.7102 3.51824V4.4H10.2903Z" fill="black" fill-opacity="0.25"/>
</svg>
