<svg class="    w-7 h-7    " viewBox="0 0 45 45" fill="none" xmlns="http://www.w3.org/2000/svg">
    <path d="M22.5 45C34.9264 45 45 34.9264 45 22.5C45 10.0736 34.9264 0 22.5 0C10.0736 0 0 10.0736 0 22.5C0 34.9264 10.0736 45 22.5 45Z" fill="#1A5DB4"/>
    <path d="M33.75 21.8841C33.75 28.1039 28.9322 30.2189 24.8766 30.2189V31.8403H28.0055V34.0369H24.878V36.5625H19.9842V34.0369H16.9931V31.8403H19.9786V30.1978C18.6806 30.1978 11.25 29.8898 11.25 21.4327V11.25H16.1086V21.8222C16.1086 26.2364 19.9983 26.1956 19.9983 26.1956V11.25H24.878V26.1956C24.878 26.1956 28.8914 26.4206 28.8914 21.7617V11.25H33.75V21.8841Z" fill="white"/>
</svg>