<svg width="21" height="21" viewBox="0 0 21 21" fill="none" xmlns="http://www.w3.org/2000/svg">
<path fill-rule="evenodd" clip-rule="evenodd" d="M10.5 21C4.70072 21 0 16.2993 0 10.5C0 4.70072 4.70072 0 10.5 0C16.2993 0 21 4.70072 21 10.5C21 16.2993 16.2993 21 10.5 21ZM15.75 10.2126V5.25H13.4827V10.1555C13.4827 12.3296 11.6097 12.2246 11.6097 12.2246V5.25H9.33253V12.2246C9.33253 12.2246 7.51734 12.2437 7.51734 10.1837V5.25H5.25V10.0012C5.25 13.9486 8.71762 14.0923 9.32334 14.0923V14.8588H7.93012V15.8839H9.32597V17.0625H11.6097V15.8839H13.0692V14.8588H11.6097V14.1028C13.5017 14.1028 15.75 13.1152 15.75 10.2126Z" fill="white"/>
</svg>
