<svg width="14" height="22" viewBox="0 0 14 22" fill="none" xmlns="http://www.w3.org/2000/svg">
<path d="M1.55556 0.785714C1.55556 0.57733 1.47361 0.37748 1.32775 0.23013C1.18189 0.0827803 0.984057 0 0.777778 0C0.571498 0 0.373668 0.0827803 0.227806 0.23013C0.0819444 0.37748 8.10665e-08 0.57733 8.10665e-08 0.785714V5.5C-0.000182895 6.40566 0.309387 7.28356 0.876317 7.98514C1.44325 8.68671 2.23272 9.16887 3.11111 9.35V21.2143C3.11111 21.4227 3.19306 21.6225 3.33892 21.7699C3.48478 21.9172 3.68261 22 3.88889 22C4.09517 22 4.293 21.9172 4.43886 21.7699C4.58472 21.6225 4.66667 21.4227 4.66667 21.2143V9.35C5.54506 9.16887 6.33453 8.68671 6.90146 7.98514C7.46839 7.28356 7.77796 6.40566 7.77778 5.5V0.785714C7.77778 0.57733 7.69583 0.37748 7.54997 0.23013C7.40411 0.0827803 7.20628 0 7 0C6.79372 0 6.59589 0.0827803 6.45003 0.23013C6.30417 0.37748 6.22222 0.57733 6.22222 0.785714V5.5C6.22248 5.98766 6.073 6.46339 5.7944 6.86163C5.5158 7.25987 5.12179 7.56102 4.66667 7.72357V0.785714C4.66667 0.57733 4.58472 0.37748 4.43886 0.23013C4.293 0.0827803 4.09517 0 3.88889 0C3.68261 0 3.48478 0.0827803 3.33892 0.23013C3.19306 0.37748 3.11111 0.57733 3.11111 0.785714V7.72357C2.65599 7.56102 2.26198 7.25987 1.98338 6.86163C1.70478 6.46339 1.5553 5.98766 1.55556 5.5V0.785714ZM12.4444 21.2143V11H10.1111C9.90483 11 9.707 10.9172 9.56114 10.7699C9.41528 10.6225 9.33333 10.4227 9.33333 10.2143V3.92857C9.33333 2.88671 9.84044 1.91243 10.5327 1.21157C11.2264 0.512286 12.1909 0 13.2222 0C13.4285 0 13.6263 0.0827803 13.7722 0.23013C13.9181 0.37748 14 0.57733 14 0.785714V21.2143C14 21.4227 13.9181 21.6225 13.7722 21.7699C13.6263 21.9172 13.4285 22 13.2222 22C13.0159 22 12.8181 21.9172 12.6722 21.7699C12.5264 21.6225 12.4444 21.4227 12.4444 21.2143Z" fill="white"/>
</svg>
